<svg width="189" height="33" viewBox="0 0 189 33" fill="none" xmlns="http://www.w3.org/2000/svg">
<path d="M71.3633 17.9336V15.2617H64.0508V10.6211H72.2773V7.9375H60.7461V25H64.0508V17.9336H71.3633ZM75.7461 7V9.66016H79.543V22.3516H75.7461V25H86.4688V22.3516H82.8359V7H75.7461ZM89.0352 18.543V18.7891C89.0352 19.7188 89.168 20.5781 89.4336 21.3672C89.6992 22.1484 90.0898 22.8281 90.6055 23.4062C91.1133 23.9844 91.7383 24.4375 92.4805 24.7656C93.2305 25.0859 94.082 25.2461 95.0352 25.2461C95.9805 25.2461 96.8242 25.0859 97.5664 24.7656C98.3086 24.4375 98.9336 23.9844 99.4414 23.4062C99.9492 22.8281 100.336 22.1484 100.602 21.3672C100.867 20.5781 101 19.7188 101 18.7891V18.543C101 17.6211 100.867 16.7695 100.602 15.9883C100.336 15.1992 99.9492 14.5156 99.4414 13.9375C98.9258 13.3594 98.2969 12.9062 97.5547 12.5781C96.8125 12.25 95.9648 12.0859 95.0117 12.0859C94.0586 12.0859 93.2109 12.25 92.4688 12.5781C91.7344 12.9062 91.1133 13.3594 90.6055 13.9375C90.0898 14.5156 89.6992 15.1992 89.4336 15.9883C89.168 16.7695 89.0352 17.6211 89.0352 18.543ZM92.293 18.7891V18.543C92.293 18.0273 92.3438 17.5391 92.4453 17.0781C92.5469 16.6172 92.707 16.2109 92.9258 15.8594C93.1445 15.5078 93.4258 15.2305 93.7695 15.0273C94.1133 14.8242 94.5273 14.7227 95.0117 14.7227C95.5039 14.7227 95.9219 14.8242 96.2656 15.0273C96.6094 15.2305 96.8906 15.5078 97.1094 15.8594C97.3203 16.2109 97.4766 16.6172 97.5781 17.0781C97.6797 17.5391 97.7305 18.0273 97.7305 18.543V18.7891C97.7305 19.3203 97.6797 19.8203 97.5781 20.2891C97.4766 20.75 97.3203 21.1523 97.1094 21.4961C96.8906 21.8477 96.6094 22.125 96.2656 22.3281C95.9219 22.5312 95.5117 22.6328 95.0352 22.6328C94.543 22.6328 94.1211 22.5312 93.7695 22.3281C93.4258 22.125 93.1445 21.8477 92.9258 21.4961C92.707 21.1523 92.5469 20.75 92.4453 20.2891C92.3438 19.8203 92.293 19.3203 92.293 18.7891ZM104.832 25H107.691L109.039 18.2266L109.297 16.9375L109.566 18.2266L110.961 25H113.82L116.094 12.3203H113.105L112.168 19.7969L112.004 21.0273L111.781 19.8203L110.41 12.3203H108.23L106.859 19.8555L106.637 21.0625L106.484 19.8555L105.535 12.3203H102.559L104.832 25ZM118.672 25H124.133C124.859 24.9922 125.562 24.8789 126.242 24.6602C126.93 24.4414 127.535 24.125 128.059 23.7109C128.582 23.3047 129 22.7969 129.312 22.1875C129.625 21.5781 129.777 20.875 129.77 20.0781C129.77 19.5703 129.691 19.0977 129.535 18.6602C129.387 18.2227 129.176 17.8281 128.902 17.4766C128.645 17.1562 128.316 16.8633 127.918 16.5977C127.52 16.332 127.105 16.1484 126.676 16.0469V16.0117C127.09 15.832 127.441 15.6406 127.73 15.4375C128.027 15.2344 128.297 14.9844 128.539 14.6875C128.773 14.3984 128.957 14.0703 129.09 13.7031C129.23 13.3359 129.305 12.9297 129.312 12.4844C129.32 11.6875 129.168 11.0039 128.855 10.4336C128.543 9.86328 128.125 9.39453 127.602 9.02734C127.078 8.66016 126.48 8.39062 125.809 8.21875C125.137 8.03906 124.449 7.94531 123.746 7.9375H118.672V25ZM120.852 17.0195H124.309C124.77 17.0352 125.199 17.1133 125.598 17.2539C125.996 17.3945 126.344 17.5938 126.641 17.8516C126.938 18.1172 127.168 18.4375 127.332 18.8125C127.504 19.1875 127.586 19.6172 127.578 20.1016C127.578 20.5781 127.484 21.0039 127.297 21.3789C127.117 21.7539 126.871 22.0703 126.559 22.3281C126.246 22.5859 125.887 22.7891 125.48 22.9375C125.074 23.0781 124.645 23.1523 124.191 23.1602H120.852V17.0195ZM120.852 15.2148V9.78906H123.816C124.238 9.79688 124.648 9.85156 125.047 9.95312C125.453 10.0547 125.812 10.2109 126.125 10.4219C126.43 10.6406 126.672 10.918 126.852 11.2539C127.039 11.5898 127.133 11.9961 127.133 12.4727C127.133 12.918 127.039 13.3086 126.852 13.6445C126.664 13.9805 126.418 14.2617 126.113 14.4883C125.809 14.7227 125.461 14.9023 125.07 15.0273C124.68 15.1445 124.281 15.207 123.875 15.2148H120.852ZM132.5 18.543V18.8008C132.5 19.7148 132.633 20.5625 132.898 21.3438C133.164 22.125 133.547 22.8047 134.047 23.3828C134.539 23.9609 135.141 24.4141 135.852 24.7422C136.57 25.0703 137.379 25.2344 138.277 25.2344C139.168 25.2344 139.969 25.0703 140.68 24.7422C141.391 24.4141 141.996 23.9609 142.496 23.3828C142.988 22.8047 143.367 22.125 143.633 21.3438C143.898 20.5625 144.031 19.7148 144.031 18.8008V18.543C144.031 17.6289 143.898 16.7812 143.633 16C143.367 15.2109 142.988 14.5273 142.496 13.9492C141.996 13.3711 141.387 12.918 140.668 12.5898C139.957 12.2539 139.152 12.0859 138.254 12.0859C137.363 12.0859 136.562 12.2539 135.852 12.5898C135.141 12.918 134.539 13.3711 134.047 13.9492C133.547 14.5273 133.164 15.2109 132.898 16C132.633 16.7812 132.5 17.6289 132.5 18.543ZM134.668 18.8008V18.543C134.668 17.9258 134.742 17.3359 134.891 16.7734C135.039 16.2031 135.266 15.7031 135.57 15.2734C135.867 14.8438 136.238 14.5039 136.684 14.2539C137.129 13.9961 137.652 13.8672 138.254 13.8672C138.855 13.8672 139.379 13.9961 139.824 14.2539C140.277 14.5039 140.656 14.8438 140.961 15.2734C141.258 15.7031 141.48 16.2031 141.629 16.7734C141.785 17.3359 141.863 17.9258 141.863 18.543V18.8008C141.863 19.4258 141.789 20.0234 141.641 20.5938C141.492 21.1562 141.27 21.6523 140.973 22.082C140.668 22.5117 140.289 22.8516 139.836 23.1016C139.391 23.3516 138.871 23.4766 138.277 23.4766C137.676 23.4766 137.148 23.3516 136.695 23.1016C136.242 22.8516 135.867 22.5117 135.57 22.082C135.266 21.6523 135.039 21.1562 134.891 20.5938C134.742 20.0234 134.668 19.4258 134.668 18.8008ZM155.855 25H158.117V24.8125C157.977 24.4609 157.867 24.0508 157.789 23.582C157.711 23.1055 157.672 22.6562 157.672 22.2344V16.3398C157.672 15.6289 157.543 15.0078 157.285 14.4766C157.027 13.9453 156.676 13.5 156.23 13.1406C155.777 12.7891 155.242 12.5273 154.625 12.3555C154.008 12.1758 153.34 12.0859 152.621 12.0859C151.832 12.0859 151.125 12.1953 150.5 12.4141C149.883 12.6328 149.359 12.918 148.93 13.2695C148.492 13.6289 148.156 14.0312 147.922 14.4766C147.695 14.9219 147.578 15.375 147.57 15.8359H149.75C149.75 15.5703 149.812 15.3164 149.938 15.0742C150.07 14.8242 150.254 14.6094 150.488 14.4297C150.723 14.25 151.008 14.1055 151.344 13.9961C151.688 13.8867 152.074 13.832 152.504 13.832C152.965 13.832 153.379 13.8906 153.746 14.0078C154.121 14.125 154.438 14.2891 154.695 14.5C154.953 14.7188 155.152 14.9805 155.293 15.2852C155.434 15.5898 155.504 15.9336 155.504 16.3164V17.3125H153.137C152.254 17.3125 151.453 17.3984 150.734 17.5703C150.023 17.7422 149.414 18 148.906 18.3438C148.398 18.6953 148.004 19.1328 147.723 19.6562C147.449 20.1797 147.312 20.7891 147.312 21.4844C147.312 22.0156 147.414 22.5117 147.617 22.9727C147.828 23.4258 148.125 23.8164 148.508 24.1445C148.883 24.4805 149.34 24.7461 149.879 24.9414C150.426 25.1367 151.035 25.2344 151.707 25.2344C152.121 25.2344 152.512 25.1914 152.879 25.1055C153.246 25.0195 153.594 24.9023 153.922 24.7539C154.242 24.6055 154.535 24.4336 154.801 24.2383C155.074 24.043 155.32 23.8359 155.539 23.6172C155.562 23.8828 155.598 24.1406 155.645 24.3906C155.699 24.6328 155.77 24.8359 155.855 25ZM152.023 23.3477C151.602 23.3477 151.23 23.293 150.91 23.1836C150.59 23.0742 150.324 22.9219 150.113 22.7266C149.902 22.5391 149.742 22.3125 149.633 22.0469C149.531 21.7812 149.48 21.4922 149.48 21.1797C149.48 20.8516 149.539 20.5586 149.656 20.3008C149.781 20.043 149.961 19.8203 150.195 19.6328C150.523 19.3672 150.965 19.1719 151.52 19.0469C152.082 18.9141 152.738 18.8477 153.488 18.8477H155.504V21.4141C155.379 21.6641 155.207 21.9062 154.988 22.1406C154.77 22.3672 154.512 22.5703 154.215 22.75C153.91 22.9297 153.574 23.0742 153.207 23.1836C152.84 23.293 152.445 23.3477 152.023 23.3477ZM170.246 12.0859C169.324 12.0859 168.5 12.2891 167.773 12.6953C167.055 13.0938 166.438 13.6406 165.922 14.3359L165.91 14.0195L165.816 12.3203H163.754V25H165.934V16.8672C166.074 16.4766 166.25 16.125 166.461 15.8125C166.68 15.4922 166.934 15.2227 167.223 15.0039C167.543 14.7539 167.918 14.5664 168.348 14.4414C168.777 14.3086 169.258 14.2422 169.789 14.2422C170.203 14.2422 170.598 14.2656 170.973 14.3125C171.355 14.3516 171.758 14.418 172.18 14.5117L172.473 12.3906C172.254 12.2969 171.926 12.2227 171.488 12.168C171.059 12.1133 170.645 12.0859 170.246 12.0859ZM175.941 18.5547V18.8008C175.941 19.707 176.062 20.5547 176.305 21.3438C176.547 22.125 176.887 22.8047 177.324 23.3828C177.762 23.9609 178.289 24.4141 178.906 24.7422C179.531 25.0703 180.227 25.2344 180.992 25.2344C181.773 25.2344 182.457 25.1016 183.043 24.8359C183.629 24.5703 184.133 24.1797 184.555 23.6641L184.648 25H186.641V7H184.473V13.5742C184.059 13.0898 183.566 12.7227 182.996 12.4727C182.434 12.2148 181.773 12.0859 181.016 12.0859C180.242 12.0859 179.543 12.2461 178.918 12.5664C178.293 12.8867 177.762 13.332 177.324 13.9023C176.879 14.4727 176.535 15.1562 176.293 15.9531C176.059 16.7422 175.941 17.6094 175.941 18.5547ZM178.109 18.8008V18.5547C178.109 17.9375 178.176 17.3516 178.309 16.7969C178.441 16.2344 178.648 15.7383 178.93 15.3086C179.203 14.8867 179.555 14.5508 179.984 14.3008C180.422 14.0508 180.945 13.9258 181.555 13.9258C182.266 13.9258 182.859 14.0938 183.336 14.4297C183.812 14.7578 184.191 15.1797 184.473 15.6953V21.5781C184.191 22.1328 183.812 22.5742 183.336 22.9023C182.859 23.2305 182.258 23.3945 181.531 23.3945C180.93 23.3945 180.414 23.2734 179.984 23.0312C179.555 22.7812 179.203 22.4453 178.93 22.0234C178.648 21.6016 178.441 21.1133 178.309 20.5586C178.176 20.0039 178.109 19.418 178.109 18.8008Z" fill="white"/>
<rect x="1" y="-1" width="20" height="7" rx="1" transform="matrix(1 0 0 -1 18 7)" stroke="white" stroke-width="2"/>
<rect x="1" y="-1" width="20" height="7" rx="1" transform="matrix(1 0 0 -1 0 31)" stroke="white" stroke-width="2"/>
<path d="M11 24C11 21.3836 12.514 16.1509 18.5699 16.1509C26.1399 16.1509 29.294 11.9245 28.9786 8" stroke="white" stroke-width="2" stroke-linecap="round"/>
</svg>
